<svg width="56" height="56" viewBox="0 0 56 56" fill="none" xmlns="http://www.w3.org/2000/svg">
<circle cx="28" cy="28" r="28" fill="#F3F3F3"/>
<path d="M18 11V31" stroke="#FF4500" stroke-width="2" stroke-linecap="round" stroke-linejoin="round"/>
<path d="M38 31H18" stroke="#FF4500" stroke-width="2" stroke-linecap="round" stroke-linejoin="round"/>
<path d="M22.4444 25.4444L28.2778 19.6111L32.1667 23.5L38 17.6667" stroke="#FF4500" stroke-width="2" stroke-linecap="round" stroke-linejoin="round"/>
<path d="M8.43 38.02H11.3C11.88 38.02 12.3333 38.1833 12.66 38.51C12.9933 38.8367 13.16 39.2733 13.16 39.82C13.16 40.08 13.1233 40.3 13.05 40.48C12.9767 40.66 12.8833 40.81 12.77 40.93C12.6567 41.0433 12.5333 41.13 12.4 41.19C12.2667 41.2433 12.1433 41.28 12.03 41.3V41.36C12.1567 41.3667 12.2967 41.4 12.45 41.46C12.61 41.52 12.76 41.6167 12.9 41.75C13.04 41.8767 13.1567 42.0433 13.25 42.25C13.35 42.45 13.4 42.6933 13.4 42.98C13.4 43.2667 13.3533 43.5333 13.26 43.78C13.1733 44.0267 13.05 44.24 12.89 44.42C12.73 44.6 12.54 44.7433 12.32 44.85C12.1 44.95 11.86 45 11.6 45H8.43V38.02ZM9.27 44.26H11.34C11.7 44.26 11.9833 44.17 12.19 43.99C12.3967 43.8033 12.5 43.5333 12.5 43.18V42.84C12.5 42.4867 12.3967 42.22 12.19 42.04C11.9833 41.8533 11.7 41.76 11.34 41.76H9.27V44.26ZM9.27 41.04H11.2C11.5333 41.04 11.7933 40.9567 11.98 40.79C12.1667 40.6233 12.26 40.3833 12.26 40.07V39.73C12.26 39.4167 12.1667 39.1767 11.98 39.01C11.7933 38.8433 11.5333 38.76 11.2 38.76H9.27V41.04ZM18.0632 44.16H18.0232C17.9699 44.28 17.9032 44.4 17.8232 44.52C17.7499 44.6333 17.6565 44.7367 17.5432 44.83C17.4299 44.9167 17.2932 44.9867 17.1332 45.04C16.9732 45.0933 16.7865 45.12 16.5732 45.12C16.0399 45.12 15.6165 44.95 15.3032 44.61C14.9899 44.2633 14.8332 43.7767 14.8332 43.15V39.84H15.6332V43.01C15.6332 43.9367 16.0265 44.4 16.8132 44.4C16.9732 44.4 17.1265 44.38 17.2732 44.34C17.4265 44.3 17.5599 44.24 17.6732 44.16C17.7932 44.08 17.8865 43.98 17.9532 43.86C18.0265 43.7333 18.0632 43.5833 18.0632 43.41V39.84H18.8632V45H18.0632V44.16ZM22.1168 45.12C21.6368 45.12 21.2335 45.03 20.9068 44.85C20.5868 44.6633 20.3101 44.4167 20.0768 44.11L20.6468 43.65C20.8468 43.9033 21.0701 44.1 21.3168 44.24C21.5635 44.3733 21.8501 44.44 22.1768 44.44C22.5168 44.44 22.7801 44.3667 22.9668 44.22C23.1601 44.0733 23.2568 43.8667 23.2568 43.6C23.2568 43.4 23.1901 43.23 23.0568 43.09C22.9301 42.9433 22.6968 42.8433 22.3568 42.79L21.9468 42.73C21.7068 42.6967 21.4868 42.6467 21.2868 42.58C21.0868 42.5067 20.9101 42.4133 20.7568 42.3C20.6101 42.18 20.4935 42.0333 20.4068 41.86C20.3268 41.6867 20.2868 41.48 20.2868 41.24C20.2868 40.9867 20.3335 40.7667 20.4268 40.58C20.5201 40.3867 20.6468 40.2267 20.8068 40.1C20.9735 39.9733 21.1701 39.88 21.3968 39.82C21.6235 39.7533 21.8668 39.72 22.1268 39.72C22.5468 39.72 22.8968 39.7933 23.1768 39.94C23.4635 40.0867 23.7135 40.29 23.9268 40.55L23.3968 41.03C23.2835 40.87 23.1168 40.7267 22.8968 40.6C22.6768 40.4667 22.4001 40.4 22.0668 40.4C21.7335 40.4 21.4801 40.4733 21.3068 40.62C21.1401 40.76 21.0568 40.9533 21.0568 41.2C21.0568 41.4533 21.1401 41.6367 21.3068 41.75C21.4801 41.8633 21.7268 41.9467 22.0468 42L22.4468 42.06C23.0201 42.1467 23.4268 42.3133 23.6668 42.56C23.9068 42.8 24.0268 43.1167 24.0268 43.51C24.0268 44.01 23.8568 44.4033 23.5168 44.69C23.1768 44.9767 22.7101 45.12 22.1168 45.12ZM25.8398 38.63C25.6665 38.63 25.5398 38.59 25.4598 38.51C25.3865 38.4233 25.3498 38.3133 25.3498 38.18V38.05C25.3498 37.9167 25.3865 37.81 25.4598 37.73C25.5398 37.6433 25.6665 37.6 25.8398 37.6C26.0132 37.6 26.1365 37.6433 26.2098 37.73C26.2898 37.81 26.3298 37.9167 26.3298 38.05V38.18C26.3298 38.3133 26.2898 38.4233 26.2098 38.51C26.1365 38.59 26.0132 38.63 25.8398 38.63ZM25.4398 39.84H26.2398V45H25.4398V39.84ZM27.9398 45V39.84H28.7398V40.68H28.7798C28.9065 40.3867 29.0832 40.1533 29.3098 39.98C29.5432 39.8067 29.8532 39.72 30.2398 39.72C30.7732 39.72 31.1932 39.8933 31.4998 40.24C31.8132 40.58 31.9698 41.0633 31.9698 41.69V45H31.1698V41.83C31.1698 40.9033 30.7798 40.44 29.9998 40.44C29.8398 40.44 29.6832 40.46 29.5298 40.5C29.3832 40.54 29.2498 40.6 29.1298 40.68C29.0098 40.76 28.9132 40.8633 28.8398 40.99C28.7732 41.11 28.7398 41.2533 28.7398 41.42V45H27.9398ZM35.5634 45.12C35.2101 45.12 34.8901 45.0567 34.6034 44.93C34.3234 44.8033 34.0801 44.6233 33.8734 44.39C33.6734 44.15 33.5168 43.8667 33.4034 43.54C33.2968 43.2067 33.2434 42.8333 33.2434 42.42C33.2434 42.0133 33.2968 41.6433 33.4034 41.31C33.5168 40.9767 33.6734 40.6933 33.8734 40.46C34.0801 40.22 34.3234 40.0367 34.6034 39.91C34.8901 39.7833 35.2101 39.72 35.5634 39.72C35.9101 39.72 36.2201 39.7833 36.4934 39.91C36.7668 40.0367 37.0001 40.2133 37.1934 40.44C37.3868 40.66 37.5334 40.9233 37.6334 41.23C37.7401 41.5367 37.7934 41.8733 37.7934 42.24V42.62H34.0834V42.86C34.0834 43.08 34.1168 43.2867 34.1834 43.48C34.2568 43.6667 34.3568 43.83 34.4834 43.97C34.6168 44.11 34.7768 44.22 34.9634 44.3C35.1568 44.38 35.3734 44.42 35.6134 44.42C35.9401 44.42 36.2234 44.3433 36.4634 44.19C36.7101 44.0367 36.9001 43.8167 37.0334 43.53L37.6034 43.94C37.4368 44.2933 37.1768 44.58 36.8234 44.8C36.4701 45.0133 36.0501 45.12 35.5634 45.12ZM35.5634 40.39C35.3434 40.39 35.1434 40.43 34.9634 40.51C34.7834 40.5833 34.6268 40.69 34.4934 40.83C34.3668 40.97 34.2668 41.1367 34.1934 41.33C34.1201 41.5167 34.0834 41.7233 34.0834 41.95V42.02H36.9334V41.91C36.9334 41.45 36.8068 41.0833 36.5534 40.81C36.3068 40.53 35.9768 40.39 35.5634 40.39ZM40.6617 45.12C40.1817 45.12 39.7784 45.03 39.4517 44.85C39.1317 44.6633 38.8551 44.4167 38.6217 44.11L39.1917 43.65C39.3917 43.9033 39.6151 44.1 39.8617 44.24C40.1084 44.3733 40.3951 44.44 40.7217 44.44C41.0617 44.44 41.3251 44.3667 41.5117 44.22C41.7051 44.0733 41.8017 43.8667 41.8017 43.6C41.8017 43.4 41.7351 43.23 41.6017 43.09C41.4751 42.9433 41.2417 42.8433 40.9017 42.79L40.4917 42.73C40.2517 42.6967 40.0317 42.6467 39.8317 42.58C39.6317 42.5067 39.4551 42.4133 39.3017 42.3C39.1551 42.18 39.0384 42.0333 38.9517 41.86C38.8717 41.6867 38.8317 41.48 38.8317 41.24C38.8317 40.9867 38.8784 40.7667 38.9717 40.58C39.0651 40.3867 39.1917 40.2267 39.3517 40.1C39.5184 39.9733 39.7151 39.88 39.9417 39.82C40.1684 39.7533 40.4117 39.72 40.6717 39.72C41.0917 39.72 41.4417 39.7933 41.7217 39.94C42.0084 40.0867 42.2584 40.29 42.4717 40.55L41.9417 41.03C41.8284 40.87 41.6617 40.7267 41.4417 40.6C41.2217 40.4667 40.9451 40.4 40.6117 40.4C40.2784 40.4 40.0251 40.4733 39.8517 40.62C39.6851 40.76 39.6017 40.9533 39.6017 41.2C39.6017 41.4533 39.6851 41.6367 39.8517 41.75C40.0251 41.8633 40.2717 41.9467 40.5917 42L40.9917 42.06C41.5651 42.1467 41.9717 42.3133 42.2117 42.56C42.4517 42.8 42.5717 43.1167 42.5717 43.51C42.5717 44.01 42.4017 44.4033 42.0617 44.69C41.7217 44.9767 41.2551 45.12 40.6617 45.12ZM45.4762 45.12C44.9962 45.12 44.5928 45.03 44.2662 44.85C43.9462 44.6633 43.6695 44.4167 43.4362 44.11L44.0062 43.65C44.2062 43.9033 44.4295 44.1 44.6762 44.24C44.9228 44.3733 45.2095 44.44 45.5362 44.44C45.8762 44.44 46.1395 44.3667 46.3262 44.22C46.5195 44.0733 46.6162 43.8667 46.6162 43.6C46.6162 43.4 46.5495 43.23 46.4162 43.09C46.2895 42.9433 46.0562 42.8433 45.7162 42.79L45.3062 42.73C45.0662 42.6967 44.8462 42.6467 44.6462 42.58C44.4462 42.5067 44.2695 42.4133 44.1162 42.3C43.9695 42.18 43.8528 42.0333 43.7662 41.86C43.6862 41.6867 43.6462 41.48 43.6462 41.24C43.6462 40.9867 43.6928 40.7667 43.7862 40.58C43.8795 40.3867 44.0062 40.2267 44.1662 40.1C44.3328 39.9733 44.5295 39.88 44.7562 39.82C44.9828 39.7533 45.2262 39.72 45.4862 39.72C45.9062 39.72 46.2562 39.7933 46.5362 39.94C46.8228 40.0867 47.0728 40.29 47.2862 40.55L46.7562 41.03C46.6428 40.87 46.4762 40.7267 46.2562 40.6C46.0362 40.4667 45.7595 40.4 45.4262 40.4C45.0928 40.4 44.8395 40.4733 44.6662 40.62C44.4995 40.76 44.4162 40.9533 44.4162 41.2C44.4162 41.4533 44.4995 41.6367 44.6662 41.75C44.8395 41.8633 45.0862 41.9467 45.4062 42L45.8062 42.06C46.3795 42.1467 46.7862 42.3133 47.0262 42.56C47.2662 42.8 47.3862 43.1167 47.3862 43.51C47.3862 44.01 47.2162 44.4033 46.8762 44.69C46.5362 44.9767 46.0695 45.12 45.4762 45.12Z" fill="#FF4500"/>
</svg>
