<svg width="56" height="56" viewBox="0 0 56 56" fill="none" xmlns="http://www.w3.org/2000/svg">
<circle cx="28" cy="28" r="28" fill="#F3F3F3"/>
<path d="M23.7342 14.42L26.9811 7.87973C27.3979 7.04013 28.6021 7.04013 29.0189 7.87973L32.2657 14.42L39.5269 15.4752C40.4585 15.6106 40.8297 16.7493 40.1554 17.4024L34.9021 22.4898L36.1419 29.6768C36.3011 30.5998 35.3267 31.3035 34.4931 30.8676L28 27.4725L21.5068 30.8676C20.6732 31.3035 19.6989 30.5998 19.8581 29.6768L21.0978 22.4898L15.8447 17.4024C15.1702 16.7493 15.5415 15.6106 16.4732 15.4752L23.7342 14.42Z" stroke="#FF4500" stroke-width="2.4841" stroke-linecap="round" stroke-linejoin="round"/>
<path d="M10.89 45.12C10.0033 45.12 9.31333 44.82 8.82 44.22C8.32667 43.6133 8.08 42.7233 8.08 41.55C8.08 40.3767 8.32667 39.4767 8.82 38.85C9.31333 38.2167 10.0033 37.9 10.89 37.9C11.4767 37.9 11.9667 38.0333 12.36 38.3C12.76 38.5667 13.07 38.9433 13.29 39.43L12.61 39.84C12.47 39.48 12.2567 39.1933 11.97 38.98C11.6833 38.76 11.3233 38.65 10.89 38.65C10.59 38.65 10.32 38.7067 10.08 38.82C9.84667 38.9333 9.64667 39.0967 9.48 39.31C9.32 39.5167 9.19667 39.7667 9.11 40.06C9.02333 40.3467 8.98 40.67 8.98 41.03V42.07C8.98 42.79 9.14667 43.3533 9.48 43.76C9.81333 44.1667 10.2833 44.37 10.89 44.37C11.3367 44.37 11.71 44.2567 12.01 44.03C12.31 43.7967 12.53 43.49 12.67 43.11L13.34 43.53C13.12 44.0233 12.8033 44.4133 12.39 44.7C11.9767 44.98 11.4767 45.12 10.89 45.12ZM16.5009 45.12C16.1476 45.12 15.8276 45.0567 15.5409 44.93C15.2609 44.8033 15.0176 44.6233 14.8109 44.39C14.6109 44.15 14.4543 43.8667 14.3409 43.54C14.2343 43.2067 14.1809 42.8333 14.1809 42.42C14.1809 42.0133 14.2343 41.6433 14.3409 41.31C14.4543 40.9767 14.6109 40.6933 14.8109 40.46C15.0176 40.22 15.2609 40.0367 15.5409 39.91C15.8276 39.7833 16.1476 39.72 16.5009 39.72C16.8476 39.72 17.1576 39.7833 17.4309 39.91C17.7043 40.0367 17.9376 40.2133 18.1309 40.44C18.3243 40.66 18.4709 40.9233 18.5709 41.23C18.6776 41.5367 18.7309 41.8733 18.7309 42.24V42.62H15.0209V42.86C15.0209 43.08 15.0543 43.2867 15.1209 43.48C15.1943 43.6667 15.2943 43.83 15.4209 43.97C15.5543 44.11 15.7143 44.22 15.9009 44.3C16.0943 44.38 16.3109 44.42 16.5509 44.42C16.8776 44.42 17.1609 44.3433 17.4009 44.19C17.6476 44.0367 17.8376 43.8167 17.9709 43.53L18.5409 43.94C18.3743 44.2933 18.1143 44.58 17.7609 44.8C17.4076 45.0133 16.9876 45.12 16.5009 45.12ZM16.5009 40.39C16.2809 40.39 16.0809 40.43 15.9009 40.51C15.7209 40.5833 15.5643 40.69 15.4309 40.83C15.3043 40.97 15.2043 41.1367 15.1309 41.33C15.0576 41.5167 15.0209 41.7233 15.0209 41.95V42.02H17.8709V41.91C17.8709 41.45 17.7443 41.0833 17.4909 40.81C17.2443 40.53 16.9143 40.39 16.5009 40.39ZM20.8992 45C20.6192 45 20.4059 44.9233 20.2592 44.77C20.1192 44.61 20.0492 44.41 20.0492 44.17V37.6H20.8492V44.3H21.6092V45H20.8992ZM24.7138 45.12C24.3605 45.12 24.0405 45.0567 23.7538 44.93C23.4738 44.8033 23.2305 44.6233 23.0238 44.39C22.8238 44.15 22.6672 43.8667 22.5538 43.54C22.4472 43.2067 22.3938 42.8333 22.3938 42.42C22.3938 42.0133 22.4472 41.6433 22.5538 41.31C22.6672 40.9767 22.8238 40.6933 23.0238 40.46C23.2305 40.22 23.4738 40.0367 23.7538 39.91C24.0405 39.7833 24.3605 39.72 24.7138 39.72C25.0605 39.72 25.3705 39.7833 25.6438 39.91C25.9172 40.0367 26.1505 40.2133 26.3438 40.44C26.5372 40.66 26.6838 40.9233 26.7838 41.23C26.8905 41.5367 26.9438 41.8733 26.9438 42.24V42.62H23.2338V42.86C23.2338 43.08 23.2672 43.2867 23.3338 43.48C23.4072 43.6667 23.5072 43.83 23.6338 43.97C23.7672 44.11 23.9272 44.22 24.1138 44.3C24.3072 44.38 24.5238 44.42 24.7638 44.42C25.0905 44.42 25.3738 44.3433 25.6138 44.19C25.8605 44.0367 26.0505 43.8167 26.1838 43.53L26.7538 43.94C26.5872 44.2933 26.3272 44.58 25.9738 44.8C25.6205 45.0133 25.2005 45.12 24.7138 45.12ZM24.7138 40.39C24.4938 40.39 24.2938 40.43 24.1138 40.51C23.9338 40.5833 23.7772 40.69 23.6438 40.83C23.5172 40.97 23.4172 41.1367 23.3438 41.33C23.2705 41.5167 23.2338 41.7233 23.2338 41.95V42.02H26.0838V41.91C26.0838 41.45 25.9572 41.0833 25.7038 40.81C25.4572 40.53 25.1272 40.39 24.7138 40.39ZM28.2621 37.6H29.0621V40.68H29.1021C29.2354 40.3533 29.4288 40.1133 29.6821 39.96C29.9421 39.8 30.2521 39.72 30.6121 39.72C30.9321 39.72 31.2221 39.7833 31.4821 39.91C31.7421 40.0367 31.9621 40.2167 32.1421 40.45C32.3288 40.6833 32.4688 40.9667 32.5621 41.3C32.6621 41.6333 32.7121 42.0067 32.7121 42.42C32.7121 42.8333 32.6621 43.2067 32.5621 43.54C32.4688 43.8733 32.3288 44.1567 32.1421 44.39C31.9621 44.6233 31.7421 44.8033 31.4821 44.93C31.2221 45.0567 30.9321 45.12 30.6121 45.12C29.9121 45.12 29.4088 44.8 29.1021 44.16H29.0621V45H28.2621V37.6ZM30.3921 44.4C30.8454 44.4 31.2021 44.26 31.4621 43.98C31.7221 43.6933 31.8521 43.32 31.8521 42.86V41.98C31.8521 41.52 31.7221 41.15 31.4621 40.87C31.2021 40.5833 30.8454 40.44 30.3921 40.44C30.2121 40.44 30.0388 40.4667 29.8721 40.52C29.7121 40.5667 29.5721 40.6333 29.4521 40.72C29.3321 40.8067 29.2354 40.9133 29.1621 41.04C29.0954 41.16 29.0621 41.29 29.0621 41.43V43.35C29.0621 43.5167 29.0954 43.6667 29.1621 43.8C29.2354 43.9267 29.3321 44.0367 29.4521 44.13C29.5721 44.2167 29.7121 44.2833 29.8721 44.33C30.0388 44.3767 30.2121 44.4 30.3921 44.4ZM34.0629 45V39.84H34.8629V40.79H34.9129C35.0062 40.5433 35.1729 40.3233 35.4129 40.13C35.6529 39.9367 35.9829 39.84 36.4029 39.84H36.7129V40.64H36.2429C35.8096 40.64 35.4696 40.7233 35.2229 40.89C34.9829 41.05 34.8629 41.2533 34.8629 41.5V45H34.0629ZM38.1348 38.63C37.9614 38.63 37.8348 38.59 37.7548 38.51C37.6814 38.4233 37.6448 38.3133 37.6448 38.18V38.05C37.6448 37.9167 37.6814 37.81 37.7548 37.73C37.8348 37.6433 37.9614 37.6 38.1348 37.6C38.3081 37.6 38.4314 37.6433 38.5048 37.73C38.5848 37.81 38.6248 37.9167 38.6248 38.05V38.18C38.6248 38.3133 38.5848 38.4233 38.5048 38.51C38.4314 38.59 38.3081 38.63 38.1348 38.63ZM37.7348 39.84H38.5348V45H37.7348V39.84ZM41.3748 45C41.0948 45 40.8814 44.9233 40.7348 44.77C40.5948 44.61 40.5248 44.4033 40.5248 44.15V40.54H39.6748V39.84H40.1548C40.3281 39.84 40.4448 39.8067 40.5048 39.74C40.5714 39.6667 40.6048 39.5433 40.6048 39.37V38.41H41.3248V39.84H42.4548V40.54H41.3248V44.3H42.3748V45H41.3748ZM46.9206 39.84H47.7106L45.4006 46.2C45.3406 46.3533 45.2806 46.48 45.2206 46.58C45.1606 46.6867 45.0873 46.77 45.0006 46.83C44.914 46.89 44.804 46.9333 44.6706 46.96C44.544 46.9867 44.3873 47 44.2006 47H43.7906V46.3H44.6006L44.9906 45.2L43.0606 39.84H43.8606L45.1006 43.35L45.3406 44.19H45.3906L45.6706 43.35L46.9206 39.84Z" fill="#FF4500"/>
</svg>
