<svg width="56" height="56" viewBox="0 0 56 56" fill="none" xmlns="http://www.w3.org/2000/svg">
<circle cx="28" cy="28" r="28" fill="#FF4500"/>
<path fill-rule="evenodd" clip-rule="evenodd" d="M28 31C21.0961 31 15.5 25.4039 15.5 18.5C15.5 11.5961 21.0961 6 28 6C34.9039 6 40.5 11.5961 40.5 18.5C40.5 25.4039 34.9039 31 28 31ZM33.0781 20.9641C33.0781 18.993 31.8469 17.8797 28.9664 17.1859V13.7172C29.857 13.9 30.7094 14.2836 31.543 14.8859L32.6047 13.1703C31.5589 12.4043 30.3306 11.9259 29.0422 11.7828V10.6875H27.3937V11.7461C25.025 11.9289 23.4148 13.2797 23.4148 15.2508C23.4148 17.3133 24.7031 18.3172 27.4695 19.0109V22.5891C26.2375 22.4062 25.2148 21.8586 24.1344 21.0188L22.9219 22.6797C24.2197 23.6788 25.7662 24.304 27.3937 24.4875V26.3125H29.0422V24.5055C31.4484 24.3047 33.0781 22.9719 33.0781 20.9641ZM27.4687 16.8023C26.0102 16.3828 25.6508 15.8898 25.6508 15.1227C25.6508 14.3203 26.2758 13.6813 27.4695 13.5898L27.4687 16.8023ZM30.8422 21.0914C30.8422 21.968 30.1602 22.5703 28.9664 22.6617V19.3578C30.4445 19.7781 30.8422 20.2703 30.8422 21.0922V21.0914Z" fill="#F3F3F3"/>
<path d="M16.39 45.12C15.5033 45.12 14.8133 44.82 14.32 44.22C13.8267 43.6133 13.58 42.7233 13.58 41.55C13.58 40.3767 13.8267 39.4767 14.32 38.85C14.8133 38.2167 15.5033 37.9 16.39 37.9C16.9767 37.9 17.4667 38.0333 17.86 38.3C18.26 38.5667 18.57 38.9433 18.79 39.43L18.11 39.84C17.97 39.48 17.7567 39.1933 17.47 38.98C17.1833 38.76 16.8233 38.65 16.39 38.65C16.09 38.65 15.82 38.7067 15.58 38.82C15.3467 38.9333 15.1467 39.0967 14.98 39.31C14.82 39.5167 14.6967 39.7667 14.61 40.06C14.5233 40.3467 14.48 40.67 14.48 41.03V42.07C14.48 42.79 14.6467 43.3533 14.98 43.76C15.3133 44.1667 15.7833 44.37 16.39 44.37C16.8367 44.37 17.21 44.2567 17.51 44.03C17.81 43.7967 18.03 43.49 18.17 43.11L18.84 43.53C18.62 44.0233 18.3033 44.4133 17.89 44.7C17.4767 44.98 16.9767 45.12 16.39 45.12ZM20.0609 45V39.84H20.8609V40.79H20.9109C21.0043 40.5433 21.1709 40.3233 21.4109 40.13C21.6509 39.9367 21.9809 39.84 22.4009 39.84H22.7109V40.64H22.2409C21.8076 40.64 21.4676 40.7233 21.2209 40.89C20.9809 41.05 20.8609 41.2533 20.8609 41.5V45H20.0609ZM27.0105 39.84H27.8005L25.4905 46.2C25.4305 46.3533 25.3705 46.48 25.3105 46.58C25.2505 46.6867 25.1771 46.77 25.0905 46.83C25.0038 46.89 24.8938 46.9333 24.7605 46.96C24.6338 46.9867 24.4771 47 24.2905 47H23.8805V46.3H24.6905L25.0805 45.2L23.1505 39.84H23.9505L25.1905 43.35L25.4305 44.19H25.4805L25.7605 43.35L27.0105 39.84ZM28.8207 39.84H29.6207V40.68H29.6607C29.794 40.3533 29.9874 40.1133 30.2407 39.96C30.5007 39.8 30.8107 39.72 31.1707 39.72C31.4907 39.72 31.7807 39.7833 32.0407 39.91C32.3007 40.0367 32.5207 40.2167 32.7007 40.45C32.8874 40.6833 33.0274 40.9667 33.1207 41.3C33.2207 41.6333 33.2707 42.0067 33.2707 42.42C33.2707 42.8333 33.2207 43.2067 33.1207 43.54C33.0274 43.8733 32.8874 44.1567 32.7007 44.39C32.5207 44.6233 32.3007 44.8033 32.0407 44.93C31.7807 45.0567 31.4907 45.12 31.1707 45.12C30.4707 45.12 29.9674 44.8 29.6607 44.16H29.6207V47H28.8207V39.84ZM30.9507 44.4C31.404 44.4 31.7607 44.26 32.0207 43.98C32.2807 43.6933 32.4107 43.32 32.4107 42.86V41.98C32.4107 41.52 32.2807 41.15 32.0207 40.87C31.7607 40.5833 31.404 40.44 30.9507 40.44C30.7707 40.44 30.5974 40.4667 30.4307 40.52C30.2707 40.5667 30.1307 40.6333 30.0107 40.72C29.8907 40.8067 29.794 40.9133 29.7207 41.04C29.654 41.16 29.6207 41.29 29.6207 41.43V43.35C29.6207 43.5167 29.654 43.6667 29.7207 43.8C29.794 43.9267 29.8907 44.0367 30.0107 44.13C30.1307 44.2167 30.2707 44.2833 30.4307 44.33C30.5974 44.3767 30.7707 44.4 30.9507 44.4ZM35.7029 45C35.4229 45 35.2096 44.9233 35.0629 44.77C34.9229 44.61 34.8529 44.4033 34.8529 44.15V40.54H34.0029V39.84H34.4829C34.6562 39.84 34.7729 39.8067 34.8329 39.74C34.8996 39.6667 34.9329 39.5433 34.9329 39.37V38.41H35.6529V39.84H36.7829V40.54H35.6529V44.3H36.7029V45H35.7029ZM39.9797 45.12C39.633 45.12 39.3164 45.0567 39.0297 44.93C38.743 44.8033 38.4964 44.6233 38.2897 44.39C38.0897 44.15 37.933 43.8667 37.8197 43.54C37.7064 43.2067 37.6497 42.8333 37.6497 42.42C37.6497 42.0133 37.7064 41.6433 37.8197 41.31C37.933 40.9767 38.0897 40.6933 38.2897 40.46C38.4964 40.22 38.743 40.0367 39.0297 39.91C39.3164 39.7833 39.633 39.72 39.9797 39.72C40.3264 39.72 40.6397 39.7833 40.9197 39.91C41.2064 40.0367 41.453 40.22 41.6597 40.46C41.8664 40.6933 42.0264 40.9767 42.1397 41.31C42.253 41.6433 42.3097 42.0133 42.3097 42.42C42.3097 42.8333 42.253 43.2067 42.1397 43.54C42.0264 43.8667 41.8664 44.15 41.6597 44.39C41.453 44.6233 41.2064 44.8033 40.9197 44.93C40.6397 45.0567 40.3264 45.12 39.9797 45.12ZM39.9797 44.41C40.413 44.41 40.7664 44.2767 41.0397 44.01C41.313 43.7433 41.4497 43.3367 41.4497 42.79V42.05C41.4497 41.5033 41.313 41.0967 41.0397 40.83C40.7664 40.5633 40.413 40.43 39.9797 40.43C39.5464 40.43 39.193 40.5633 38.9197 40.83C38.6464 41.0967 38.5097 41.5033 38.5097 42.05V42.79C38.5097 43.3367 38.6464 43.7433 38.9197 44.01C39.193 44.2767 39.5464 44.41 39.9797 44.41Z" fill="#F3F3F3"/>
</svg>
