<svg width="56" height="56" viewBox="0 0 56 56" fill="none" xmlns="http://www.w3.org/2000/svg">
<path d="M39.8029 21.6702C38.7761 17.0284 37.2532 14.0675 34.8124 13.3459C34.3396 13.208 33.8494 13.1392 33.357 13.1417C31.8564 13.1417 30.6723 14.0345 27.9998 14.0345C25.3273 14.0345 24.1409 13.1417 22.6426 13.1417C22.1296 13.139 21.6188 13.2077 21.1247 13.3459C18.6805 14.0675 17.1704 17.0312 16.1319 21.6702C15.0716 26.4085 15.2636 30.1524 17.3362 30.8712C18.7871 31.3734 20.0845 30.3349 21.3133 28.8065C22.7084 27.0654 24.4267 26.5296 27.9998 26.5296C31.5729 26.5296 33.2242 27.0654 34.6215 28.8065C35.8492 30.336 37.1947 31.3617 38.6071 30.8801C40.8961 30.0983 40.8638 26.4644 39.8029 21.6702Z" stroke="#FF4500" stroke-width="2.36583" stroke-miterlimit="10"/>
<path d="M30.0088 21.4007C30.6251 21.4007 31.1248 20.901 31.1248 20.2846C31.1248 19.6682 30.6251 19.1685 30.0088 19.1685C29.3924 19.1685 28.8927 19.6682 28.8927 20.2846C28.8927 20.901 29.3924 21.4007 30.0088 21.4007Z" fill="#FF4500"/>
<path d="M32.4641 23.8561C32.2433 23.8561 32.0274 23.7905 31.8438 23.6678C31.6602 23.545 31.5171 23.3705 31.4327 23.1664C31.3484 22.9623 31.3264 22.7378 31.3697 22.5212C31.413 22.3046 31.5196 22.1058 31.6759 21.9498C31.8323 21.7938 32.0314 21.6878 32.2481 21.645C32.4648 21.6023 32.6893 21.6248 32.8932 21.7097C33.0971 21.7946 33.2712 21.938 33.3935 22.122C33.5158 22.3059 33.5808 22.5219 33.5802 22.7428C33.5795 23.0383 33.4616 23.3215 33.2523 23.5302C33.0431 23.7389 32.7597 23.8561 32.4641 23.8561Z" fill="#FF4500"/>
<path d="M32.4641 18.9453C33.0805 18.9453 33.5802 18.4456 33.5802 17.8292C33.5802 17.2128 33.0805 16.7131 32.4641 16.7131C31.8477 16.7131 31.348 17.2128 31.348 17.8292C31.348 18.4456 31.8477 18.9453 32.4641 18.9453Z" fill="#FF4500"/>
<path d="M34.9195 21.4007C35.5359 21.4007 36.0356 20.901 36.0356 20.2846C36.0356 19.6682 35.5359 19.1685 34.9195 19.1685C34.3031 19.1685 33.8034 19.6682 33.8034 20.2846C33.8034 20.901 34.3031 21.4007 34.9195 21.4007Z" fill="#FF4500"/>
<path d="M22.6426 17.606V22.9632" stroke="#FF4500" stroke-width="2.36583" stroke-linecap="round" stroke-linejoin="round"/>
<path d="M25.3212 20.2846H19.964" stroke="#FF4500" stroke-width="2.36583" stroke-linecap="round" stroke-linejoin="round"/>
<path d="M15.95 43.98H15.92C15.8333 44.3067 15.62 44.58 15.28 44.8C14.9467 45.0133 14.5133 45.12 13.98 45.12C13.5533 45.12 13.16 45.0433 12.8 44.89C12.4467 44.73 12.1433 44.5 11.89 44.2C11.6367 43.8933 11.4367 43.5167 11.29 43.07C11.15 42.6167 11.08 42.0967 11.08 41.51C11.08 40.93 11.15 40.4167 11.29 39.97C11.43 39.5167 11.63 39.14 11.89 38.84C12.15 38.5333 12.4633 38.3 12.83 38.14C13.1967 37.98 13.6033 37.9 14.05 37.9C14.6767 37.9 15.2 38.04 15.62 38.32C16.04 38.6 16.3633 38.97 16.59 39.43L15.9 39.85C15.74 39.4767 15.5 39.1833 15.18 38.97C14.8667 38.7567 14.49 38.65 14.05 38.65C13.7433 38.65 13.4633 38.7067 13.21 38.82C12.9567 38.9267 12.7367 39.08 12.55 39.28C12.37 39.48 12.23 39.72 12.13 40C12.03 40.28 11.98 40.5933 11.98 40.94V42.07C11.98 42.4167 12.03 42.7333 12.13 43.02C12.23 43.3 12.37 43.54 12.55 43.74C12.7367 43.94 12.9633 44.0967 13.23 44.21C13.4967 44.3167 13.7967 44.37 14.13 44.37C14.37 44.37 14.5967 44.34 14.81 44.28C15.03 44.2133 15.22 44.1167 15.38 43.99C15.5467 43.8633 15.6767 43.7067 15.77 43.52C15.8633 43.3267 15.91 43.1 15.91 42.84V42.15H14.37V41.41H16.73V45H15.95V43.98ZM22.0531 45C21.7531 45 21.5365 44.92 21.4031 44.76C21.2765 44.6 21.1965 44.4 21.1631 44.16H21.1131C20.9998 44.48 20.8131 44.72 20.5531 44.88C20.2931 45.04 19.9831 45.12 19.6231 45.12C19.0765 45.12 18.6498 44.98 18.3431 44.7C18.0431 44.42 17.8931 44.04 17.8931 43.56C17.8931 43.0733 18.0698 42.7 18.4231 42.44C18.7831 42.18 19.3398 42.05 20.0931 42.05H21.1131V41.54C21.1131 41.1733 21.0131 40.8933 20.8131 40.7C20.6131 40.5067 20.3065 40.41 19.8931 40.41C19.5798 40.41 19.3165 40.48 19.1031 40.62C18.8965 40.76 18.7231 40.9467 18.5831 41.18L18.1031 40.73C18.2431 40.45 18.4665 40.2133 18.7731 40.02C19.0798 39.82 19.4665 39.72 19.9331 39.72C20.5598 39.72 21.0465 39.8733 21.3931 40.18C21.7398 40.4867 21.9131 40.9133 21.9131 41.46V44.3H22.5031V45H22.0531ZM19.7531 44.44C19.9531 44.44 20.1365 44.4167 20.3031 44.37C20.4698 44.3233 20.6131 44.2567 20.7331 44.17C20.8531 44.0833 20.9465 43.9833 21.0131 43.87C21.0798 43.7567 21.1131 43.6333 21.1131 43.5V42.65H20.0531C19.5931 42.65 19.2565 42.7167 19.0431 42.85C18.8365 42.9833 18.7331 43.1767 18.7331 43.43V43.64C18.7331 43.8933 18.8231 44.09 19.0031 44.23C19.1898 44.37 19.4398 44.44 19.7531 44.44ZM23.6449 45V39.84H24.4449V40.68H24.4849C24.5449 40.5467 24.6116 40.4233 24.6849 40.31C24.7649 40.19 24.8583 40.0867 24.9649 40C25.0783 39.9133 25.2083 39.8467 25.3549 39.8C25.5016 39.7467 25.6749 39.72 25.8749 39.72C26.2149 39.72 26.5283 39.8033 26.8149 39.97C27.1016 40.13 27.3149 40.3967 27.4549 40.77H27.4749C27.5683 40.49 27.7416 40.2467 27.9949 40.04C28.2549 39.8267 28.6049 39.72 29.0449 39.72C29.5716 39.72 29.9816 39.8933 30.2749 40.24C30.5749 40.58 30.7249 41.0633 30.7249 41.69V45H29.9249V41.83C29.9249 41.37 29.8349 41.0233 29.6549 40.79C29.4749 40.5567 29.1883 40.44 28.7949 40.44C28.6349 40.44 28.4816 40.46 28.3349 40.5C28.1949 40.54 28.0683 40.6 27.9549 40.68C27.8416 40.76 27.7516 40.8633 27.6849 40.99C27.6183 41.11 27.5849 41.2533 27.5849 41.42V45H26.7849V41.83C26.7849 41.37 26.6949 41.0233 26.5149 40.79C26.3349 40.5567 26.0549 40.44 25.6749 40.44C25.5149 40.44 25.3616 40.46 25.2149 40.5C25.0683 40.54 24.9383 40.6 24.8249 40.68C24.7116 40.76 24.6183 40.8633 24.5449 40.99C24.4783 41.11 24.4449 41.2533 24.4449 41.42V45H23.6449ZM32.7754 38.63C32.6021 38.63 32.4754 38.59 32.3954 38.51C32.3221 38.4233 32.2854 38.3133 32.2854 38.18V38.05C32.2854 37.9167 32.3221 37.81 32.3954 37.73C32.4754 37.6433 32.6021 37.6 32.7754 37.6C32.9487 37.6 33.0721 37.6433 33.1454 37.73C33.2254 37.81 33.2654 37.9167 33.2654 38.05V38.18C33.2654 38.3133 33.2254 38.4233 33.1454 38.51C33.0721 38.59 32.9487 38.63 32.7754 38.63ZM32.3754 39.84H33.1754V45H32.3754V39.84ZM34.8754 45V39.84H35.6754V40.68H35.7154C35.8421 40.3867 36.0187 40.1533 36.2454 39.98C36.4787 39.8067 36.7887 39.72 37.1754 39.72C37.7087 39.72 38.1287 39.8933 38.4354 40.24C38.7487 40.58 38.9054 41.0633 38.9054 41.69V45H38.1054V41.83C38.1054 40.9033 37.7154 40.44 36.9354 40.44C36.7754 40.44 36.6187 40.46 36.4654 40.5C36.3187 40.54 36.1854 40.6 36.0654 40.68C35.9454 40.76 35.8487 40.8633 35.7754 40.99C35.7087 41.11 35.6754 41.2533 35.6754 41.42V45H34.8754ZM44.909 45.57C44.909 46.1033 44.699 46.4933 44.279 46.74C43.8657 46.9933 43.2423 47.12 42.409 47.12C41.6023 47.12 41.0223 47.01 40.669 46.79C40.3157 46.57 40.139 46.2567 40.139 45.85C40.139 45.57 40.2123 45.35 40.359 45.19C40.5057 45.0367 40.7057 44.9233 40.959 44.85V44.74C40.6523 44.5933 40.499 44.3533 40.499 44.02C40.499 43.76 40.5823 43.5633 40.749 43.43C40.9157 43.29 41.129 43.1867 41.389 43.12V43.08C41.0823 42.9333 40.8423 42.7233 40.669 42.45C40.5023 42.1767 40.419 41.86 40.419 41.5C40.419 41.24 40.4657 41 40.559 40.78C40.6523 40.56 40.7823 40.3733 40.949 40.22C41.1223 40.06 41.3257 39.9367 41.559 39.85C41.799 39.7633 42.0657 39.72 42.359 39.72C42.7257 39.72 43.0523 39.7867 43.339 39.92V39.83C43.339 39.63 43.3857 39.4667 43.479 39.34C43.5723 39.2067 43.7257 39.14 43.939 39.14H44.709V39.84H43.729V40.17C43.9157 40.33 44.059 40.5233 44.159 40.75C44.2657 40.97 44.319 41.22 44.319 41.5C44.319 41.76 44.2723 42 44.179 42.22C44.0857 42.44 43.9523 42.63 43.779 42.79C43.6123 42.9433 43.409 43.0633 43.169 43.15C42.929 43.2367 42.6623 43.28 42.369 43.28C42.2023 43.28 42.0357 43.2633 41.869 43.23C41.6957 43.2767 41.539 43.3467 41.399 43.44C41.259 43.5267 41.189 43.65 41.189 43.81C41.189 43.9633 41.2623 44.0667 41.409 44.12C41.5557 44.1733 41.7457 44.2 41.979 44.2H43.079C43.719 44.2 44.1823 44.3233 44.469 44.57C44.7623 44.81 44.909 45.1433 44.909 45.57ZM44.159 45.63C44.159 45.4233 44.079 45.2567 43.919 45.13C43.7657 45.01 43.489 44.95 43.089 44.95H41.369C41.049 45.0967 40.889 45.33 40.889 45.65C40.889 45.8767 40.9723 46.07 41.139 46.23C41.3123 46.39 41.6023 46.47 42.009 46.47H42.749C43.1957 46.47 43.5423 46.4 43.789 46.26C44.0357 46.12 44.159 45.91 44.159 45.63ZM42.369 42.64C42.709 42.64 42.979 42.56 43.179 42.4C43.379 42.2333 43.479 41.98 43.479 41.64V41.36C43.479 41.02 43.379 40.77 43.179 40.61C42.979 40.4433 42.709 40.36 42.369 40.36C42.029 40.36 41.759 40.4433 41.559 40.61C41.359 40.77 41.259 41.02 41.259 41.36V41.64C41.259 41.98 41.359 42.2333 41.559 42.4C41.759 42.56 42.029 42.64 42.369 42.64Z" fill="#FF4500"/>
</svg>
