<svg width="56" height="56" viewBox="0 0 56 56" fill="none" xmlns="http://www.w3.org/2000/svg">
<circle cx="28" cy="28" r="28" fill="#F3F3F3"/>
<path d="M28 6.00005C25.5277 6.00004 23.111 6.73314 21.0554 8.10666C18.9998 9.48017 17.3976 11.4324 16.4515 13.7165C15.5054 16.0006 15.2579 18.5139 15.7402 20.9386C16.2225 23.3634 17.413 25.5907 19.1612 27.3388C21.5054 29.683 24.6848 31 28 31C31.3152 31 34.4946 29.683 36.8388 27.3388C39.183 24.9946 40.5 21.8152 40.5 18.5C40.5 15.1848 39.183 12.0054 36.8388 9.66118C35.6808 8.49682 34.3033 7.57371 32.7861 6.94527C31.269 6.31684 29.6422 5.99557 28 6.00005ZM20.2792 10.9089C20.4254 11.1111 20.5668 11.3276 20.7035 11.5582C21.6755 13.2036 22.2567 15.348 22.3693 17.6667H17.1984C17.3943 15.1207 18.4858 12.7265 20.2792 10.9089ZM20.2792 26.0911C18.4858 24.2735 17.3943 21.8793 17.1984 19.3333H22.3693C22.2567 21.652 21.6755 23.7964 20.7035 25.4419C20.5672 25.6726 20.4258 25.8891 20.2792 26.0911ZM27.1667 29.3016C25.1286 29.146 23.1768 28.4138 21.5391 27.1906C21.7551 26.9013 21.9552 26.6005 22.1385 26.2895C23.2574 24.3954 23.9214 21.951 24.038 19.3333H27.1667V29.3016ZM27.1667 17.6667H24.038C23.9214 15.0491 23.2574 12.6047 22.1385 10.7105C21.9552 10.3995 21.7551 10.0987 21.5391 9.80946C23.1768 8.58621 25.1286 7.85404 27.1667 7.69843V17.6667ZM28.8333 7.69843C30.8715 7.85404 32.8233 8.58621 34.4609 9.80946C34.2449 10.0987 34.0448 10.3995 33.8616 10.7105C32.7427 12.6047 32.0786 15.049 31.962 17.6667H28.8333V7.69843ZM28.8333 29.3016V19.3333H31.962C32.0786 21.9509 32.7427 24.3954 33.8616 26.2895C34.0448 26.6005 34.2449 26.9013 34.4609 27.1906C32.8233 28.4138 30.8715 29.146 28.8333 29.3016ZM35.7208 26.0911C35.5746 25.8889 35.4332 25.6725 35.2965 25.4419C34.3245 23.7964 33.7433 21.652 33.6307 19.3333H38.8016C38.6057 21.8793 37.5142 24.2735 35.7208 26.0911ZM33.6307 17.6667C33.7433 15.348 34.3245 13.2036 35.2965 11.5582C35.4328 11.3274 35.5742 11.111 35.7208 10.9089C37.5142 12.7265 38.6057 15.1207 38.8016 17.6667H33.6307Z" fill="#FF4500"/>
<path d="M15.89 45.12C15.3233 45.12 14.84 45.0133 14.44 44.8C14.04 44.58 13.7 44.28 13.42 43.9L14.04 43.38C14.2867 43.7067 14.56 43.9567 14.86 44.13C15.16 44.2967 15.5133 44.38 15.92 44.38C16.42 44.38 16.8 44.26 17.06 44.02C17.3267 43.78 17.46 43.46 17.46 43.06C17.46 42.7267 17.36 42.47 17.16 42.29C16.96 42.11 16.63 41.9667 16.17 41.86L15.6 41.73C14.96 41.5833 14.47 41.3633 14.13 41.07C13.7967 40.77 13.63 40.35 13.63 39.81C13.63 39.5033 13.6867 39.23 13.8 38.99C13.9133 38.75 14.07 38.55 14.27 38.39C14.4767 38.23 14.72 38.11 15 38.03C15.2867 37.9433 15.6 37.9 15.94 37.9C16.4667 37.9 16.9167 37.9967 17.29 38.19C17.67 38.3833 17.99 38.6667 18.25 39.04L17.62 39.5C17.4267 39.2333 17.1933 39.0233 16.92 38.87C16.6467 38.7167 16.3067 38.64 15.9 38.64C15.4533 38.64 15.1 38.7367 14.84 38.93C14.5867 39.1167 14.46 39.4 14.46 39.78C14.46 40.1133 14.5667 40.3667 14.78 40.54C15 40.7067 15.33 40.84 15.77 40.94L16.34 41.07C17.0267 41.2233 17.5233 41.4567 17.83 41.77C18.1367 42.0833 18.29 42.5 18.29 43.02C18.29 43.34 18.2333 43.63 18.12 43.89C18.0133 44.15 17.8567 44.37 17.65 44.55C17.4433 44.73 17.19 44.87 16.89 44.97C16.5967 45.07 16.2633 45.12 15.89 45.12ZM19.6605 39.84H20.4605V40.68H20.5005C20.6339 40.3533 20.8272 40.1133 21.0805 39.96C21.3405 39.8 21.6505 39.72 22.0105 39.72C22.3305 39.72 22.6205 39.7833 22.8805 39.91C23.1405 40.0367 23.3605 40.2167 23.5405 40.45C23.7272 40.6833 23.8672 40.9667 23.9605 41.3C24.0605 41.6333 24.1105 42.0067 24.1105 42.42C24.1105 42.8333 24.0605 43.2067 23.9605 43.54C23.8672 43.8733 23.7272 44.1567 23.5405 44.39C23.3605 44.6233 23.1405 44.8033 22.8805 44.93C22.6205 45.0567 22.3305 45.12 22.0105 45.12C21.3105 45.12 20.8072 44.8 20.5005 44.16H20.4605V47H19.6605V39.84ZM21.7905 44.4C22.2439 44.4 22.6005 44.26 22.8605 43.98C23.1205 43.6933 23.2505 43.32 23.2505 42.86V41.98C23.2505 41.52 23.1205 41.15 22.8605 40.87C22.6005 40.5833 22.2439 40.44 21.7905 40.44C21.6105 40.44 21.4372 40.4667 21.2705 40.52C21.1105 40.5667 20.9705 40.6333 20.8505 40.72C20.7305 40.8067 20.6339 40.9133 20.5605 41.04C20.4939 41.16 20.4605 41.29 20.4605 41.43V43.35C20.4605 43.5167 20.4939 43.6667 20.5605 43.8C20.6339 43.9267 20.7305 44.0367 20.8505 44.13C20.9705 44.2167 21.1105 44.2833 21.2705 44.33C21.4372 44.3767 21.6105 44.4 21.7905 44.4ZM27.4113 45.12C27.0647 45.12 26.748 45.0567 26.4613 44.93C26.1747 44.8033 25.928 44.6233 25.7213 44.39C25.5213 44.15 25.3647 43.8667 25.2513 43.54C25.138 43.2067 25.0813 42.8333 25.0813 42.42C25.0813 42.0133 25.138 41.6433 25.2513 41.31C25.3647 40.9767 25.5213 40.6933 25.7213 40.46C25.928 40.22 26.1747 40.0367 26.4613 39.91C26.748 39.7833 27.0647 39.72 27.4113 39.72C27.758 39.72 28.0713 39.7833 28.3513 39.91C28.638 40.0367 28.8847 40.22 29.0913 40.46C29.298 40.6933 29.458 40.9767 29.5713 41.31C29.6847 41.6433 29.7413 42.0133 29.7413 42.42C29.7413 42.8333 29.6847 43.2067 29.5713 43.54C29.458 43.8667 29.298 44.15 29.0913 44.39C28.8847 44.6233 28.638 44.8033 28.3513 44.93C28.0713 45.0567 27.758 45.12 27.4113 45.12ZM27.4113 44.41C27.8447 44.41 28.198 44.2767 28.4713 44.01C28.7447 43.7433 28.8813 43.3367 28.8813 42.79V42.05C28.8813 41.5033 28.7447 41.0967 28.4713 40.83C28.198 40.5633 27.8447 40.43 27.4113 40.43C26.978 40.43 26.6247 40.5633 26.3513 40.83C26.078 41.0967 25.9413 41.5033 25.9413 42.05V42.79C25.9413 43.3367 26.078 43.7433 26.3513 44.01C26.6247 44.2767 26.978 44.41 27.4113 44.41ZM31.057 45V39.84H31.857V40.79H31.907C32.0004 40.5433 32.167 40.3233 32.407 40.13C32.647 39.9367 32.977 39.84 33.397 39.84H33.707V40.64H33.237C32.8037 40.64 32.4637 40.7233 32.217 40.89C31.977 41.05 31.857 41.2533 31.857 41.5V45H31.057ZM35.908 45C35.628 45 35.4146 44.9233 35.268 44.77C35.128 44.61 35.058 44.4033 35.058 44.15V40.54H34.208V39.84H34.688C34.8613 39.84 34.978 39.8067 35.038 39.74C35.1046 39.6667 35.138 39.5433 35.138 39.37V38.41H35.858V39.84H36.988V40.54H35.858V44.3H36.908V45H35.908ZM39.8238 45.12C39.3438 45.12 38.9405 45.03 38.6138 44.85C38.2938 44.6633 38.0172 44.4167 37.7838 44.11L38.3538 43.65C38.5538 43.9033 38.7772 44.1 39.0238 44.24C39.2705 44.3733 39.5572 44.44 39.8838 44.44C40.2238 44.44 40.4872 44.3667 40.6738 44.22C40.8672 44.0733 40.9638 43.8667 40.9638 43.6C40.9638 43.4 40.8972 43.23 40.7638 43.09C40.6372 42.9433 40.4038 42.8433 40.0638 42.79L39.6538 42.73C39.4138 42.6967 39.1938 42.6467 38.9938 42.58C38.7938 42.5067 38.6172 42.4133 38.4638 42.3C38.3172 42.18 38.2005 42.0333 38.1138 41.86C38.0338 41.6867 37.9938 41.48 37.9938 41.24C37.9938 40.9867 38.0405 40.7667 38.1338 40.58C38.2272 40.3867 38.3538 40.2267 38.5138 40.1C38.6805 39.9733 38.8772 39.88 39.1038 39.82C39.3305 39.7533 39.5738 39.72 39.8338 39.72C40.2538 39.72 40.6038 39.7933 40.8838 39.94C41.1705 40.0867 41.4205 40.29 41.6338 40.55L41.1038 41.03C40.9905 40.87 40.8238 40.7267 40.6038 40.6C40.3838 40.4667 40.1072 40.4 39.7738 40.4C39.4405 40.4 39.1872 40.4733 39.0138 40.62C38.8472 40.76 38.7638 40.9533 38.7638 41.2C38.7638 41.4533 38.8472 41.6367 39.0138 41.75C39.1872 41.8633 39.4338 41.9467 39.7538 42L40.1538 42.06C40.7272 42.1467 41.1338 42.3133 41.3738 42.56C41.6138 42.8 41.7338 43.1167 41.7338 43.51C41.7338 44.01 41.5638 44.4033 41.2238 44.69C40.8838 44.9767 40.4172 45.12 39.8238 45.12Z" fill="#FF4500"/>
</svg>
