<svg width="56" height="56" viewBox="0 0 56 56" fill="none" xmlns="http://www.w3.org/2000/svg">
<circle cx="28" cy="28" r="28" fill="#FF4500"/>
<path d="M36.3333 8.77778H31.3472L34.5417 5.59722C34.6712 5.46772 34.7739 5.31399 34.844 5.14479C34.9141 4.97559 34.9501 4.79425 34.9501 4.61111C34.9501 4.42797 34.9141 4.24663 34.844 4.07743C34.7739 3.90823 34.6712 3.7545 34.5417 3.625C34.4122 3.4955 34.2584 3.39278 34.0892 3.32269C33.92 3.25261 33.7387 3.21654 33.5556 3.21654C33.1857 3.21654 32.831 3.36347 32.5694 3.625L28 8.13889L26.375 5.36111C26.2838 5.20243 26.1622 5.06326 26.0173 4.95156C25.8723 4.83986 25.7067 4.75781 25.53 4.71009C25.3534 4.66237 25.169 4.64992 24.9875 4.67345C24.806 4.69698 24.6309 4.75602 24.4722 4.84722C24.3135 4.93842 24.1744 5.05997 24.0627 5.20495C23.951 5.34993 23.8689 5.51549 23.8212 5.69218C23.7735 5.86887 23.761 6.05323 23.7846 6.23473C23.8081 6.41623 23.8671 6.59132 23.9583 6.75L25.2222 8.77778H19.6667C18.5616 8.77778 17.5018 9.21676 16.7204 9.99816C15.939 10.7796 15.5 11.8394 15.5 12.9444V24.0556C15.5 25.1606 15.939 26.2204 16.7204 27.0018C17.5018 27.7832 18.5616 28.2222 19.6667 28.2222V29.6111C19.6667 29.9795 19.813 30.3327 20.0735 30.5932C20.3339 30.8537 20.6872 31 21.0556 31C21.4239 31 21.7772 30.8537 22.0376 30.5932C22.2981 30.3327 22.4444 29.9795 22.4444 29.6111V28.2222H33.5556V29.6111C33.5556 29.9795 33.7019 30.3327 33.9623 30.5932C34.2228 30.8537 34.5761 31 34.9444 31C35.3128 31 35.6661 30.8537 35.9265 30.5932C36.187 30.3327 36.3333 29.9795 36.3333 29.6111V28.2222C37.4384 28.2222 38.4982 27.7832 39.2796 27.0018C40.061 26.2204 40.5 25.1606 40.5 24.0556V12.9444C40.5 11.8394 40.061 10.7796 39.2796 9.99816C38.4982 9.21676 37.4384 8.77778 36.3333 8.77778ZM37.7222 24.0556C37.7222 24.4239 37.5759 24.7772 37.3154 25.0376C37.055 25.2981 36.7017 25.4444 36.3333 25.4444H19.6667C19.2983 25.4444 18.945 25.2981 18.6846 25.0376C18.4241 24.7772 18.2778 24.4239 18.2778 24.0556V12.9444C18.2778 12.5761 18.4241 12.2228 18.6846 11.9624C18.945 11.7019 19.2983 11.5556 19.6667 11.5556H36.3333C36.7017 11.5556 37.055 11.7019 37.3154 11.9624C37.5759 12.2228 37.7222 12.5761 37.7222 12.9444V24.0556Z" fill="#F3F3F3"/>
<path d="M8.78 38.76V45H7.94V38.76H5.72V38.02H11V38.76H8.78ZM13.3584 45.12C13.005 45.12 12.685 45.0567 12.3984 44.93C12.1184 44.8033 11.875 44.6233 11.6684 44.39C11.4684 44.15 11.3117 43.8667 11.1984 43.54C11.0917 43.2067 11.0384 42.8333 11.0384 42.42C11.0384 42.0133 11.0917 41.6433 11.1984 41.31C11.3117 40.9767 11.4684 40.6933 11.6684 40.46C11.875 40.22 12.1184 40.0367 12.3984 39.91C12.685 39.7833 13.005 39.72 13.3584 39.72C13.705 39.72 14.015 39.7833 14.2884 39.91C14.5617 40.0367 14.795 40.2133 14.9884 40.44C15.1817 40.66 15.3284 40.9233 15.4284 41.23C15.535 41.5367 15.5884 41.8733 15.5884 42.24V42.62H11.8784V42.86C11.8784 43.08 11.9117 43.2867 11.9784 43.48C12.0517 43.6667 12.1517 43.83 12.2784 43.97C12.4117 44.11 12.5717 44.22 12.7584 44.3C12.9517 44.38 13.1684 44.42 13.4084 44.42C13.735 44.42 14.0184 44.3433 14.2584 44.19C14.505 44.0367 14.695 43.8167 14.8284 43.53L15.3984 43.94C15.2317 44.2933 14.9717 44.58 14.6184 44.8C14.265 45.0133 13.845 45.12 13.3584 45.12ZM13.3584 40.39C13.1384 40.39 12.9384 40.43 12.7584 40.51C12.5784 40.5833 12.4217 40.69 12.2884 40.83C12.1617 40.97 12.0617 41.1367 11.9884 41.33C11.915 41.5167 11.8784 41.7233 11.8784 41.95V42.02H14.7284V41.91C14.7284 41.45 14.6017 41.0833 14.3484 40.81C14.1017 40.53 13.7717 40.39 13.3584 40.39ZM17.7566 45C17.4766 45 17.2633 44.9233 17.1166 44.77C16.9766 44.61 16.9066 44.41 16.9066 44.17V37.6H17.7066V44.3H18.4666V45H17.7566ZM21.5713 45.12C21.2179 45.12 20.8979 45.0567 20.6113 44.93C20.3313 44.8033 20.0879 44.6233 19.8813 44.39C19.6813 44.15 19.5246 43.8667 19.4113 43.54C19.3046 43.2067 19.2513 42.8333 19.2513 42.42C19.2513 42.0133 19.3046 41.6433 19.4113 41.31C19.5246 40.9767 19.6813 40.6933 19.8813 40.46C20.0879 40.22 20.3313 40.0367 20.6113 39.91C20.8979 39.7833 21.2179 39.72 21.5713 39.72C21.9179 39.72 22.2279 39.7833 22.5013 39.91C22.7746 40.0367 23.0079 40.2133 23.2013 40.44C23.3946 40.66 23.5413 40.9233 23.6413 41.23C23.7479 41.5367 23.8013 41.8733 23.8013 42.24V42.62H20.0913V42.86C20.0913 43.08 20.1246 43.2867 20.1913 43.48C20.2646 43.6667 20.3646 43.83 20.4913 43.97C20.6246 44.11 20.7846 44.22 20.9713 44.3C21.1646 44.38 21.3813 44.42 21.6213 44.42C21.9479 44.42 22.2313 44.3433 22.4713 44.19C22.7179 44.0367 22.9079 43.8167 23.0413 43.53L23.6113 43.94C23.4446 44.2933 23.1846 44.58 22.8313 44.8C22.4779 45.0133 22.0579 45.12 21.5713 45.12ZM21.5713 40.39C21.3513 40.39 21.1513 40.43 20.9713 40.51C20.7913 40.5833 20.6346 40.69 20.5013 40.83C20.3746 40.97 20.2746 41.1367 20.2013 41.33C20.1279 41.5167 20.0913 41.7233 20.0913 41.95V42.02H22.9413V41.91C22.9413 41.45 22.8146 41.0833 22.5613 40.81C22.3146 40.53 21.9846 40.39 21.5713 40.39ZM26.1814 45L24.3714 39.84H25.1714L26.0714 42.4L26.6314 44.16H26.6814L27.2414 42.4L28.1614 39.84H28.9314L27.1114 45H26.1814ZM30.3633 38.63C30.1899 38.63 30.0633 38.59 29.9833 38.51C29.9099 38.4233 29.8733 38.3133 29.8733 38.18V38.05C29.8733 37.9167 29.9099 37.81 29.9833 37.73C30.0633 37.6433 30.1899 37.6 30.3633 37.6C30.5366 37.6 30.6599 37.6433 30.7333 37.73C30.8133 37.81 30.8533 37.9167 30.8533 38.05V38.18C30.8533 38.3133 30.8133 38.4233 30.7333 38.51C30.6599 38.59 30.5366 38.63 30.3633 38.63ZM29.9633 39.84H30.7633V45H29.9633V39.84ZM34.0133 45.12C33.5333 45.12 33.1299 45.03 32.8033 44.85C32.4833 44.6633 32.2066 44.4167 31.9733 44.11L32.5433 43.65C32.7433 43.9033 32.9666 44.1 33.2133 44.24C33.4599 44.3733 33.7466 44.44 34.0733 44.44C34.4133 44.44 34.6766 44.3667 34.8633 44.22C35.0566 44.0733 35.1533 43.8667 35.1533 43.6C35.1533 43.4 35.0866 43.23 34.9533 43.09C34.8266 42.9433 34.5933 42.8433 34.2533 42.79L33.8433 42.73C33.6033 42.6967 33.3833 42.6467 33.1833 42.58C32.9833 42.5067 32.8066 42.4133 32.6533 42.3C32.5066 42.18 32.3899 42.0333 32.3033 41.86C32.2233 41.6867 32.1833 41.48 32.1833 41.24C32.1833 40.9867 32.2299 40.7667 32.3233 40.58C32.4166 40.3867 32.5433 40.2267 32.7033 40.1C32.8699 39.9733 33.0666 39.88 33.2933 39.82C33.5199 39.7533 33.7633 39.72 34.0233 39.72C34.4433 39.72 34.7933 39.7933 35.0733 39.94C35.3599 40.0867 35.6099 40.29 35.8233 40.55L35.2933 41.03C35.1799 40.87 35.0133 40.7267 34.7933 40.6C34.5733 40.4667 34.2966 40.4 33.9633 40.4C33.6299 40.4 33.3766 40.4733 33.2033 40.62C33.0366 40.76 32.9533 40.9533 32.9533 41.2C32.9533 41.4533 33.0366 41.6367 33.2033 41.75C33.3766 41.8633 33.6233 41.9467 33.9433 42L34.3433 42.06C34.9166 42.1467 35.3233 42.3133 35.5633 42.56C35.8033 42.8 35.9233 43.1167 35.9233 43.51C35.9233 44.01 35.7533 44.4033 35.4133 44.69C35.0733 44.9767 34.6066 45.12 34.0133 45.12ZM37.7363 38.63C37.563 38.63 37.4363 38.59 37.3563 38.51C37.283 38.4233 37.2463 38.3133 37.2463 38.18V38.05C37.2463 37.9167 37.283 37.81 37.3563 37.73C37.4363 37.6433 37.563 37.6 37.7363 37.6C37.9097 37.6 38.033 37.6433 38.1063 37.73C38.1863 37.81 38.2263 37.9167 38.2263 38.05V38.18C38.2263 38.3133 38.1863 38.4233 38.1063 38.51C38.033 38.59 37.9097 38.63 37.7363 38.63ZM37.3363 39.84H38.1363V45H37.3363V39.84ZM41.7863 45.12C41.4397 45.12 41.123 45.0567 40.8363 44.93C40.5497 44.8033 40.303 44.6233 40.0963 44.39C39.8963 44.15 39.7397 43.8667 39.6263 43.54C39.513 43.2067 39.4563 42.8333 39.4563 42.42C39.4563 42.0133 39.513 41.6433 39.6263 41.31C39.7397 40.9767 39.8963 40.6933 40.0963 40.46C40.303 40.22 40.5497 40.0367 40.8363 39.91C41.123 39.7833 41.4397 39.72 41.7863 39.72C42.133 39.72 42.4463 39.7833 42.7263 39.91C43.013 40.0367 43.2597 40.22 43.4663 40.46C43.673 40.6933 43.833 40.9767 43.9463 41.31C44.0597 41.6433 44.1163 42.0133 44.1163 42.42C44.1163 42.8333 44.0597 43.2067 43.9463 43.54C43.833 43.8667 43.673 44.15 43.4663 44.39C43.2597 44.6233 43.013 44.8033 42.7263 44.93C42.4463 45.0567 42.133 45.12 41.7863 45.12ZM41.7863 44.41C42.2197 44.41 42.573 44.2767 42.8463 44.01C43.1197 43.7433 43.2563 43.3367 43.2563 42.79V42.05C43.2563 41.5033 43.1197 41.0967 42.8463 40.83C42.573 40.5633 42.2197 40.43 41.7863 40.43C41.353 40.43 40.9997 40.5633 40.7263 40.83C40.453 41.0967 40.3163 41.5033 40.3163 42.05V42.79C40.3163 43.3367 40.453 43.7433 40.7263 44.01C40.9997 44.2767 41.353 44.41 41.7863 44.41ZM45.432 45V39.84H46.232V40.68H46.272C46.3987 40.3867 46.5754 40.1533 46.802 39.98C47.0354 39.8067 47.3454 39.72 47.732 39.72C48.2654 39.72 48.6854 39.8933 48.992 40.24C49.3054 40.58 49.462 41.0633 49.462 41.69V45H48.662V41.83C48.662 40.9033 48.272 40.44 47.492 40.44C47.332 40.44 47.1754 40.46 47.022 40.5C46.8754 40.54 46.742 40.6 46.622 40.68C46.502 40.76 46.4054 40.8633 46.332 40.99C46.2654 41.11 46.232 41.2533 46.232 41.42V45H45.432Z" fill="#F3F3F3"/>
</svg>
